<svg version="1.2" baseProfile="tiny-ps" xmlns="http://www.w3.org/2000/svg" viewBox="0 0 343 89" width="343" height="89">
	<title>Renome</title>
	<style>
		tspan { white-space:pre }
		.shp0 { fill: #000000 } 
	</style>
	<path id="Renome" fill-rule="evenodd" class="shp0" d="M86.98 85.32C83.61 87.45 79.63 88.51 75.03 88.51C70.57 88.51 66.76 87.31 63.6 84.91C60.51 82.51 57.56 78.39 54.74 72.55C52.47 67.88 50.69 64.45 49.38 62.25C48.08 59.98 46.77 58.37 45.47 57.41C44.23 56.45 42.69 55.86 40.84 55.66C40.56 57.1 39.77 61.63 38.47 69.25C37.92 72.69 37.57 74.78 37.44 75.54C36.75 79.73 35.38 82.95 33.32 85.22C31.26 87.42 28.13 88.51 23.94 88.51C19.34 88.51 15.26 87.18 11.69 84.5C8.18 81.75 5.47 77.97 3.55 73.17C1.63 68.29 0.67 62.76 0.67 56.58C0.67 45.05 2.66 35.09 6.64 26.71C10.69 18.34 16.32 11.95 23.53 7.56C30.81 3.09 39.19 0.86 48.66 0.86C55.26 0.86 60.78 1.86 65.25 3.85C69.71 5.84 73.01 8.59 75.13 12.09C77.33 15.59 78.43 19.54 78.43 23.93C78.43 27.78 77.5 31.56 75.65 35.26C73.86 38.9 71.15 42.13 67.51 44.95C63.87 47.76 59.44 49.86 54.23 51.23C57.52 52.12 60.06 53.56 61.85 55.55C63.63 57.55 65.42 60.46 67.2 64.31C69.13 68.43 71.01 71.45 72.87 73.37C74.79 75.3 76.99 76.26 79.46 76.26C81.66 76.26 83.75 75.54 85.74 74.09C86.31 73.67 86.92 73.15 87.57 72.55C87.18 70.7 86.98 68.71 86.98 66.58C86.98 61.84 87.97 57.44 89.97 53.39C91.96 49.27 94.7 46.01 98.21 43.61C101.78 41.2 105.79 40 110.26 40C114.24 40 117.43 41.2 119.84 43.61C122.24 45.94 123.44 49.13 123.44 53.19C123.44 57.92 121.72 62.01 118.29 65.44C114.93 68.81 109.19 71.49 101.09 73.48C102.81 76.64 106.07 78.21 110.88 78.21C113.97 78.21 117.47 77.15 121.38 75.02C124.29 73.42 126.91 71.46 129.23 69.16C129.41 60.98 130.67 53.19 133.02 45.77C133.64 43.78 134.63 42.34 136.01 41.44C137.45 40.48 139.44 40 141.98 40C143.35 40 144.32 40.17 144.87 40.52C145.41 40.86 145.69 41.51 145.69 42.47C145.69 43.57 145.17 46.04 144.14 49.89C143.46 52.64 142.91 55.04 142.5 57.1C142.08 59.16 141.74 61.7 141.47 64.72C143.73 58.82 146.27 54.01 149.09 50.3C151.9 46.59 154.65 43.95 157.33 42.37C160.07 40.79 162.58 40 164.85 40C169.31 40 171.54 42.23 171.54 46.7C171.54 49.37 170.79 54.22 169.28 61.22C167.97 67.19 167.32 71.14 167.32 73.06C167.32 75.81 168.31 77.18 170.31 77.18C171.68 77.18 173.29 76.36 175.15 74.71C176.2 73.78 177.43 72.53 178.85 70.98C178.65 69.65 178.55 68.29 178.55 66.88C178.55 61.67 179.54 57.03 181.53 52.98C183.52 48.86 186.27 45.67 189.77 43.4C193.28 41.07 197.15 39.9 201.41 39.9C206.63 39.9 210.82 41.72 213.98 45.36C217.21 48.93 219.09 53.36 219.64 58.64C222.03 58.49 224.76 58.08 227.82 57.4C228.45 53.42 229.37 49.55 230.56 45.77C231.18 43.78 232.17 42.34 233.55 41.44C234.99 40.48 236.98 40 239.52 40C240.9 40 241.86 40.17 242.41 40.52C242.96 40.86 243.23 41.51 243.23 42.47C243.23 43.57 242.72 46.04 241.69 49.89C241 52.64 240.45 55.04 240.04 57.1C239.63 59.09 239.28 61.6 239.01 64.62C240.86 59.26 243.06 54.73 245.6 51.02C248.21 47.31 250.85 44.57 253.53 42.78C256.28 40.93 258.85 40 261.26 40C263.66 40 265.34 40.55 266.3 41.65C267.33 42.75 267.85 44.43 267.85 46.7C267.85 48.89 267.19 52.88 265.89 58.64C265.34 61.12 264.96 62.97 264.76 64.21C268.19 55.76 272 49.62 276.19 45.77C280.38 41.92 284.29 40 287.93 40C292.4 40 294.63 42.23 294.63 46.7C294.63 49.37 293.87 54.22 292.36 61.22C291.06 67.19 290.4 71.14 290.4 73.06C290.4 75.81 291.4 77.18 293.39 77.18C294.76 77.18 296.38 76.36 298.23 74.71C299.28 73.78 300.51 72.54 301.92 71C301.73 69.6 301.63 68.12 301.63 66.58C301.63 61.84 302.63 57.44 304.62 53.39C306.61 49.27 309.36 46.01 312.86 43.61C316.43 41.2 320.45 40 324.91 40C328.89 40 332.08 41.2 334.49 43.61C336.89 45.94 338.09 49.13 338.09 53.19C338.09 57.92 336.38 62.01 332.94 65.44C329.58 68.81 323.81 71.49 315.64 73.48C317.29 76.64 320.07 78.21 323.98 78.21C326.8 78.21 329.1 77.56 330.88 76.26C332.74 74.95 334.87 72.76 337.27 69.67C338.09 68.64 339.02 68.12 340.05 68.12C340.94 68.12 341.63 68.53 342.11 69.36C342.66 70.18 342.93 71.31 342.93 72.76C342.93 75.23 342.35 77.36 341.18 79.14C339.26 82.09 336.72 84.39 333.56 86.04C330.47 87.69 326.76 88.51 322.44 88.51C315.85 88.51 310.73 86.56 307.09 82.64C306.49 81.99 305.94 81.29 305.44 80.56C303.69 82.24 301.87 83.73 299.98 85.01C296.62 87.35 292.77 88.51 288.45 88.51C284.95 88.51 282.3 87.52 280.52 85.53C278.73 83.47 277.84 80.52 277.84 76.67C277.84 74.75 278.32 71.31 279.28 66.37C280.17 62.04 280.62 59.06 280.62 57.41C280.62 56.31 280.24 55.76 279.49 55.76C278.59 55.76 277.32 56.93 275.68 59.26C274.03 61.53 272.38 64.55 270.73 68.33C269.08 72.1 267.74 76.09 266.71 80.27C265.96 83.57 265.07 85.77 264.04 86.87C263.07 87.97 261.5 88.51 259.3 88.51C257.03 88.51 255.32 87.45 254.15 85.32C253.05 83.12 252.5 80.48 252.5 77.39C252.5 74.78 252.84 71 253.53 66.06C254.08 61.67 254.35 58.78 254.35 57.41C254.35 56.31 253.98 55.76 253.22 55.76C252.19 55.76 250.89 57 249.31 59.47C247.73 61.94 246.18 65.1 244.67 68.94C243.23 72.79 242.06 76.57 241.17 80.27C240.41 83.5 239.52 85.7 238.49 86.87C237.53 87.97 235.99 88.51 233.86 88.51C231.25 88.51 229.39 87.14 228.3 84.39C227.27 81.65 226.75 77.25 226.75 71.21C226.75 70.31 226.76 69.41 226.79 68.52C224.26 69.03 221.61 69.34 218.82 69.46C217.51 75.23 214.94 79.86 211.09 83.36C207.25 86.8 202.89 88.51 198.01 88.51C193.89 88.51 190.36 87.52 187.4 85.53C185.42 84.16 183.76 82.48 182.43 80.49C180.66 82.2 178.82 83.71 176.9 85.01C173.53 87.35 169.69 88.51 165.36 88.51C161.86 88.51 159.22 87.52 157.43 85.53C155.65 83.47 154.75 80.52 154.75 76.67C154.75 74.75 155.23 71.31 156.2 66.37C157.09 62.04 157.53 59.06 157.53 57.41C157.53 56.31 157.16 55.76 156.4 55.76C155.51 55.76 154.24 56.93 152.59 59.26C151.01 61.53 149.36 64.55 147.65 68.33C146 72.1 144.66 76.09 143.63 80.27C142.87 83.5 141.98 85.7 140.95 86.87C139.99 87.97 138.44 88.51 136.32 88.51C133.71 88.51 131.85 87.14 130.75 84.39C130.42 83.5 130.14 82.42 129.91 81.17C128.32 82.36 126.54 83.5 124.57 84.6C119.97 87.21 115.03 88.51 109.74 88.51C102.53 88.51 96.94 86.56 92.95 82.64C92.57 82.27 92.21 81.88 91.87 81.48C90.24 82.97 88.62 84.25 86.98 85.32ZM23.84 71L26.62 55.55C24.29 55.55 22.67 55.01 21.78 53.91C20.96 52.81 20.54 51.57 20.54 50.2C20.54 48.55 21.06 47.25 22.09 46.28C23.19 45.32 24.42 44.84 25.8 44.84L28.37 44.84C29.47 38.11 30.5 32.31 31.46 27.44C32.35 22.97 35.24 20.74 40.11 20.74C44.03 20.74 45.99 22.49 45.99 25.99C45.99 26.75 45.95 27.33 45.88 27.74L42.79 44.84C46.5 44.64 49.86 43.74 52.89 42.16C55.98 40.59 58.41 38.39 60.2 35.57C62.05 32.76 62.98 29.56 62.98 25.99C62.98 21.67 61.5 18.27 58.55 15.8C55.6 13.32 51.27 12.09 45.57 12.09C38.84 12.09 32.94 13.77 27.86 17.14C22.84 20.43 18.93 25.38 16.12 31.97C13.3 38.49 11.89 46.46 11.89 55.86C11.89 60.26 12.34 64.04 13.23 67.19C14.12 70.35 15.22 72.72 16.53 74.3C17.83 75.88 19.07 76.67 20.24 76.67C21.13 76.67 21.85 76.22 22.4 75.33C23.02 74.44 23.5 73 23.84 71ZM108.51 50.1C105.97 50.1 103.8 51.57 102.02 54.52C100.3 57.48 99.44 61.05 99.44 65.24L99.44 65.44C103.49 64.48 106.69 63.04 109.02 61.12C111.36 59.19 112.52 56.96 112.52 54.42C112.52 53.12 112.15 52.09 111.39 51.33C110.7 50.51 109.74 50.1 108.51 50.1ZM198.84 77.6C201.03 77.6 202.92 76.7 204.5 74.92C206.15 73.13 207.25 70.56 207.8 67.19C205.67 65.75 204.02 63.86 202.85 61.53C201.76 59.19 201.21 56.72 201.21 54.11C201.21 53.01 201.31 51.92 201.52 50.82L201 50.82C198.25 50.82 195.95 52.16 194.1 54.83C192.31 57.44 191.42 61.15 191.42 65.96C191.42 69.73 192.14 72.62 193.58 74.61C195.09 76.6 196.85 77.6 198.84 77.6ZM323.16 50.1C320.62 50.1 318.45 51.57 316.67 54.52C314.95 57.48 314.09 61.05 314.09 65.24L314.09 65.44C318.15 64.48 321.34 63.04 323.67 61.12C326.01 59.19 327.18 56.96 327.18 54.42C327.18 53.12 326.8 52.09 326.04 51.33C325.36 50.51 324.39 50.1 323.16 50.1Z" />
</svg>